<?xml version="1.0" encoding="utf-8"?>
<!-- Generator: Adobe Illustrator 26.0.1, SVG Export Plug-In . SVG Version: 6.00 Build 0)  -->
<svg version="1.1" id="Lag_1" xmlns="http://www.w3.org/2000/svg" xmlns:xlink="http://www.w3.org/1999/xlink" x="0px" y="0px"
	 viewBox="0 0 1024 1024" style="enable-background:new 0 0 1024 1024;" xml:space="preserve">
<style type="text/css">
	.st0{fill:url(#SVGID_1_);}
</style>
<radialGradient id="SVGID_1_" cx="437.8" cy="680.2" r="427.8534" fx="181.1518" fy="612.3433" gradientTransform="matrix(0.1771 -0.9842 1.5219 0.2738 -674.9393 924.8323)" gradientUnits="userSpaceOnUse">
	<stop  offset="0.6594" style="stop-color:#967C81"/>
	<stop  offset="0.8215" style="stop-color:#AB818A"/>
	<stop  offset="1" style="stop-color:#C68796"/>
</radialGradient>
<path class="st0" d="M1023.04,567.71c-3.24-8.8-13.26-8.99-20.81-6.41c-9.78,3.34-19.33,7.71-28.86,11.71
	c-11.06,4.64-22.07,9.4-33.02,14.3c-10.25,4.59-20.32,9.7-30.82,13.7c-17.96,6.86-37.22,11.29-56.51,11.06
	c-1.21-0.31-2.42-0.64-3.63-0.96c-33.49-43.34-70.99-83.59-112.83-118.99c-43.83-37.08-92.16-68.96-144.3-93.11
	c-44.05-20.39-90.54-35.38-138.29-43.86c2.35-8.33,6.45-16.21,10.89-23.59c4.7-7.83,11.5-14.39,15.73-22.46
	c4.32-8.24,4.21-18.35-3.79-24.29c-6.22-4.62-14.81-4.93-22.22-4.14c-17.92,1.91-35.98,6.74-53.14,12.11
	c-18.27,5.72-36.19,12.93-53.02,22.1c-17.77,9.68-34.55,21.76-47.94,37.04c-19.57,3.19-38.8,8.04-57.26,15
	c-45.65,17.19-91.33,47.91-111,94.2c-0.36,0.84-0.65,1.71-0.99,2.56c-0.07,0.16-0.19,0.28-0.24,0.45c-0.16,0.48-0.32,0.96-0.49,1.43
	c-1.66,4.29-3.17,8.62-4.42,13.05c-0.13,0.37-0.2,0.72-0.23,1.06c-2.1,8.87-3.28,17.76-4.37,26.8c-0.26,2.12-1.33,2.21-3.17,3.07
	c-1.85,0.87-3.67,1.82-5.48,2.77c-2.83,1.47-5.65,2.96-8.51,4.38c-0.19,0.07-0.37,0.12-0.56,0.22c-0.65,0.33-1.3,0.67-1.95,1
	c-0.32,0.15-0.63,0.32-0.95,0.47c-0.09,0.04-0.17,0.11-0.26,0.16c-18.99,9.77-37.97,19.55-56.96,29.32
	c-9.53,4.91-19.33,9.49-28.62,14.83c-7.88,4.53-13.7,10.97-14.78,20.26c-0.98,8.39,1.28,18.13,5.11,25.62
	c1.77,3.45,4.73,6.81,8.55,8c3.34,1.04,7.09,0.3,10.43-0.32c16.33-3,32.58-6.72,48.84-10.06c20.58-4.22,41.17-8.41,61.83-12.21
	c9.31-1.66,18.78-3.07,27.87-5.46c0.08-0.02,0.17-0.05,0.25-0.07c52.4-10.22,105.13-19.28,158.27-22.58
	c10.98,8.88,23.58,15.79,36.46,21.6c21.73,9.79,44.25,18.05,66.75,25.9c11.72,4.09,23.51,7.97,35.35,11.66
	c6.04,1.88,12.1,3.71,18.17,5.49c4.71,1.38,9.66,2.81,14.62,2.48c10.16-0.67,16.29-8.79,14.64-18.74
	c-1.65-9.98-8.99-18.97-14.64-27.04c-3-4.28-6.09-8.54-9.15-12.84c19.22,2.52,38.41,5.25,57.58,7.94
	c45.88,6.43,91.77,13.55,136.69,25.07c48.52,12.44,95.5,30.33,140.03,53.26c0.01,13.62,1.35,27.37,4.59,40.59
	c3.34,13.65,9.1,28.33,20.21,37.55c6.81,5.65,15.13,6.9,22.49,1.48c7.42-5.46,12.26-14.31,17.47-21.72
	c12.63-17.98,25.26-35.97,37.88-53.95c5.67-8.07,11.09-16.46,17.84-23.69c5.61-6,12.19-10.78,19.24-14.94
	c13.48-7.96,28.19-13.71,41.32-22.28C1009.41,596.9,1028.49,582.54,1023.04,567.71z"/>
</svg>
