<svg id="Lag_1" data-name="Lag 1" xmlns="http://www.w3.org/2000/svg" viewBox="0 0 607.43 678.16"><defs><style>.cls-1{fill:#fff;}</style></defs><path class="cls-1" d="M264.67,258.92A492.38,492.38,0,0,1,388.85,121c16.87-12.74,34.53-24.74,53.3-34.52,19.21-10,40.1-17.73,61.86-19.32a113.77,113.77,0,0,1,55.32,10.07c34.47,15.63,61.25,45.5,77.95,79C657.12,196,664.71,240.37,670.83,284Q672,292,673,300c.25,1.9,3.15,1.09,2.89-.8-6-44.46-12.26-89.65-29.93-131.25-15.15-35.65-39.84-68-73.81-87.54-16-9.19-33.88-15.13-52.34-16.37-21.59-1.45-43,3.69-62.83,12-20.25,8.56-39,20.31-56.93,33A494.34,494.34,0,0,0,270.44,244q-4.29,6.63-8.36,13.39a1.5,1.5,0,0,0,2.59,1.52Z" transform="translate(-208.45 -63.83)"/><path class="cls-1" d="M402.47,290l54.36-52.33,54.05-52c7.7-7.42,15.74-15.27,25.81-19.36,9.18-3.73,20.49-4.21,28.67,2.1,7,5.43,10.13,14.33,11.91,22.72,1,4.75,1.6,9.57,2.2,14.39l2.32,18.6q4.68,37.44,9.35,74.89l1.15,9.17c.23,1.89,3.24,1.91,3,0l-9.57-76.62c-1.49-11.94-2.68-24-4.57-35.84-1.42-8.93-3.74-18.22-9.56-25.38-6.42-7.9-16.47-10.78-26.33-9.42-10.9,1.5-20.15,7.78-28.23,14.9-4.45,3.92-8.66,8.1-12.93,12.2l-13.78,13.26L462.59,228l-55.4,53.32-6.84,6.58c-1.39,1.35.73,3.47,2.12,2.13Z" transform="translate(-208.45 -63.83)"/><path class="cls-1" d="M590.41,312.69l-4.3,65.52-4.29,65.52-2.41,36.86,2.25-1.29Q559.21,465.16,538,449.11t-40.71-33.77q-19.6-17.74-37.63-37.12T425.37,338q-16.29-20.83-30.7-43.06-1.83-2.81-3.61-5.63c-1-1.63-3.63-.12-2.59,1.51q14.26,22.52,30.46,43.71T453,375.42q17.94,19.71,37.53,37.81t40.66,34.42q21,16.25,43.28,30.65c1.87,1.21,3.75,2.4,5.64,3.59a1.52,1.52,0,0,0,2.26-1.3l4.29-65.51L591,349.56l2.42-36.87c.12-1.92-2.88-1.92-3,0Z" transform="translate(-208.45 -63.83)"/><path class="cls-1" d="M288.11,297c-5.8-3.94-8.48-11.7-7-18.46,1.57-7,7.69-11.83,14.71-12.66a16.37,16.37,0,0,1,17,9.21c3,6.29,2.31,14.39-2.73,19.44-5.56,5.57-14.94,6.87-21.67,2.72-1.65-1-3.16,1.58-1.52,2.59,7,4.31,16.49,3.6,23-1.26,6.86-5.08,9.21-14,6.64-22.06a19.33,19.33,0,0,0-18.18-13.76c-8.25-.15-16.37,4.53-19.41,12.34a21.07,21.07,0,0,0,7.53,24.49c1.61,1.09,3.11-1.51,1.52-2.59Z" transform="translate(-208.45 -63.83)"/><path class="cls-1" d="M437.05,208.49c1.92-15.2,12.43-27.86,24.4-36.68a158,158,0,0,1,21.63-12.92c7.64-3.93,15.34-7.81,23.15-11.39,15.43-7.06,32.08-12.62,49.27-11.37a52.22,52.22,0,0,1,22.29,6.52,49.16,49.16,0,0,1,14.4,12.77,51.82,51.82,0,0,1,10.59,36.43,45.24,45.24,0,0,1-.79,4.75c-.41,1.88,2.48,2.68,2.89.8,3-13.45,0-27.72-7.24-39.34a52.16,52.16,0,0,0-34.31-23.88c-17.56-3.46-35.42.91-51.63,7.67-8.36,3.5-16.45,7.57-24.55,11.62a218.2,218.2,0,0,0-22.83,12.69c-13.2,8.73-25.21,20.93-29.23,36.69a45.11,45.11,0,0,0-1,5.64c-.24,1.91,2.76,1.89,3,0Z" transform="translate(-208.45 -63.83)"/><path class="cls-1" d="M625.12,409.85l-12.5,61.24c-1.82,8.91-3.21,18.08-6.1,26.73-2.61,7.81-7,14.79-14.29,18.95-7.12,4.05-15.52,5.29-23.59,5.55a102.76,102.76,0,0,1-23.28-1.9,112.88,112.88,0,0,1-42.47-18.19,107.91,107.91,0,0,1-31.51-33.93c-1-1.66-1.89-3.36-2.77-5.07s-3.47-.2-2.59,1.51a109.53,109.53,0,0,0,30.55,36.54,116,116,0,0,0,42.91,20.9,107.75,107.75,0,0,0,23.57,3.17c8.28.19,16.87-.42,24.71-3.27a33.11,33.11,0,0,0,18.48-15.87c4-7.7,5.61-16.38,7.33-24.81l12.85-62.95,1.59-7.8c.39-1.89-2.5-2.69-2.89-.8Z" transform="translate(-208.45 -63.83)"/><path class="cls-1" d="M672.46,428.86c12.28,26.35,28.62,50.53,46.51,73.36,18.29,23.35,38.19,45.39,57.82,67.61l36.58,41.43c1.28,1.45,3.4-.68,2.12-2.12-20.94-23.71-42-47.33-62.78-71.16C733.65,516.13,715,493.79,699,469.59a325.26,325.26,0,0,1-23.91-42.25c-.81-1.74-3.4-.22-2.59,1.52Z" transform="translate(-208.45 -63.83)"/><path class="cls-1" d="M690,570.69a365.21,365.21,0,0,1,7.88,65.58A441.57,441.57,0,0,1,695.05,704q-2.17,18.18-6,36.11c-.4,1.88,2.49,2.69,2.9.8a421.35,421.35,0,0,0,8.61-66.19,426.53,426.53,0,0,0-1.75-68.37,347.88,347.88,0,0,0-5.87-36.45c-.42-1.88-3.31-1.08-2.9.8Z" transform="translate(-208.45 -63.83)"/><path class="cls-1" d="M312.87,537.29a132.54,132.54,0,0,1-12.16,78.42c-12,24.35-31.69,43.27-53.49,59-12.28,8.83-25.17,16.78-38.06,24.68-1.64,1-.14,3.6,1.52,2.59,23.34-14.31,47-28.9,66.4-48.48a140.33,140.33,0,0,0,24.31-32.53,136.07,136.07,0,0,0,13.55-38.39,134.64,134.64,0,0,0,.82-46c-.29-1.9-3.18-1.09-2.89.8Z" transform="translate(-208.45 -63.83)"/><path class="cls-1" d="M340.92,665.33a150.33,150.33,0,0,0,10.64,75.57,1.54,1.54,0,0,0,1.84,1,1.5,1.5,0,0,0,1-1.84,148.37,148.37,0,0,1-10.53-74.77c.22-1.91-2.77-1.9-3,0Z" transform="translate(-208.45 -63.83)"/><path class="cls-1" d="M256.69,285.49a301.92,301.92,0,0,0,.22,80.63,306.83,306.83,0,0,0,21.23,77.6,299.7,299.7,0,0,0,20.72,40.33c1,1.64,3.6.14,2.59-1.52a298.91,298.91,0,0,1-32.27-73,304.51,304.51,0,0,1-12.05-78.94,297.88,297.88,0,0,1,2.56-45.07c.11-.81-.77-1.49-1.5-1.5a1.54,1.54,0,0,0-1.5,1.5Z" transform="translate(-208.45 -63.83)"/><path class="cls-1" d="M654.14,268.27c-5.38-2.69-10.22-6.83-12.91-12.29-2.51-5.08-2.55-11,.92-15.58,2.89-3.86,8.09-6.81,13-5.28,5.4,1.68,7.57,7.84,7.29,13-.41,7.51-5.89,13.71-10.76,18.94-1.31,1.41.8,3.54,2.12,2.12,5.12-5.5,10.47-11.76,11.48-19.49.82-6.23-1.38-13.5-7.25-16.61-5.51-2.91-12-.8-16.29,3.3A17.07,17.07,0,0,0,637.23,254c2.27,7.54,8.5,13.46,15.4,16.9,1.72.86,3.24-1.73,1.51-2.59Z" transform="translate(-208.45 -63.83)"/><path class="cls-1" d="M401.24,287.18c-1.35,1.19-2.67,2.25-4.56,2.16a29.21,29.21,0,0,1-3.08-.42l-3.43-.52a1.56,1.56,0,0,0-1.85,1.05,1.52,1.52,0,0,0,1.05,1.85l3.92.59a25.08,25.08,0,0,0,3.87.46c2.51,0,4.4-1.47,6.2-3.05a1.5,1.5,0,0,0-2.12-2.12Z" transform="translate(-208.45 -63.83)"/><path class="cls-1" d="M593.36,313.11l0-.05-.15.35a1.74,1.74,0,0,1,.15-.26l-.24.31a10.13,10.13,0,0,1,.78-.69,3.17,3.17,0,0,0,.88-1.56,15.27,15.27,0,0,0,.25-1.65c.06-.5.11-1,.15-1.51a1.46,1.46,0,0,0-.44-1.06,1.5,1.5,0,0,0-1.06-.44,1.54,1.54,0,0,0-1.5,1.5c0,.56-.1,1.13-.18,1.69l.06-.4a6.26,6.26,0,0,1-.29,1.43l.15-.35a2,2,0,0,1-.18.32l.23-.3a4.36,4.36,0,0,1-.68.61,2.83,2.83,0,0,0-.85,1.27,1.51,1.51,0,0,0,1,1.84,1.54,1.54,0,0,0,1.85-1.05Z" transform="translate(-208.45 -63.83)"/></svg>