<svg id="Lag_1" data-name="Lag 1" xmlns="http://www.w3.org/2000/svg" viewBox="0 0 602.38 406.06"><defs><style>.cls-1{fill:#fff;}</style></defs><path class="cls-1" d="M147.48,533.91c9.88-28.88,23.39-56.38,39-82.6s33.06-51.06,51.29-75.38c18.58-24.8,37.52-49.47,57.83-72.89,20.15-23.22,42-45.18,67-63.23,23.47-17,49.61-30.63,77.74-37.92q5.22-1.35,10.5-2.4c1.9-.38,1.1-3.28-.79-2.9-28.74,5.76-55.78,18.22-80.08,34.44-25.46,17-47.9,38.06-68.38,60.73-21,23.27-40.24,48.18-59.22,73.13-18.66,24.52-36.73,49.53-52.93,75.75-16.06,26-30.25,53.22-41,81.85q-2,5.29-3.81,10.63c-.62,1.83,2.27,2.61,2.9.79Z" transform="translate(-144.5 -129.16)"/><path class="cls-1" d="M487.79,202.71c19.1-15.09,26.36-39.8,43.57-56.55,8-7.82,18.33-14.16,29.87-14,10.65.12,20,6.05,26.61,14.14,17.25,21.25,11.43,49.94,4.89,74.12-7.7,28.48-15.64,56.89-23.46,85.34l-5.94,21.62c-1.93,7-4.19,14-5.43,21.17-1.1,6.28-1.33,13,1.25,19a21.21,21.21,0,0,0,10.93,11.29,14.66,14.66,0,0,0,7.46,1.07c1.89-.23,1.91-3.24,0-3-5.36.66-10.19-2.27-13.31-6.48-3.8-5.15-4.54-11.5-3.91-17.73.73-7.19,3.07-14.2,5-21.14l6-21.62q11.88-43.18,23.75-86.38c6.74-24.63,13.19-53.2-2.44-75.9-5.92-8.61-14.64-15.74-25.07-17.82-11.26-2.24-22.45,1.69-31.45,8.43-9.56,7.16-16.63,16.73-23,26.74-6.46,10.21-12.45,20.93-20.88,29.7a64.13,64.13,0,0,1-6.52,5.92c-1.52,1.2.62,3.31,2.12,2.13Z" transform="translate(-144.5 -129.16)"/><path class="cls-1" d="M627.44,369.43A191.79,191.79,0,0,0,660,346.87,188,188,0,0,0,674.48,333c4.49-4.77,8.68-9.8,13.25-14.5,8.63-8.89,19.66-17.05,32.69-16.46A22.48,22.48,0,0,1,735,308.15a28.43,28.43,0,0,1,7.37,12.49,37.68,37.68,0,0,1,1.29,15.08,49.32,49.32,0,0,1-5.74,17.11c-6.36,12-15.74,22.31-24.29,32.78l-57.53,70.48-28.77,35.23c-4.4,5.4-9,10.7-13,16.41-3.68,5.22-7,11.1-7.89,17.51a23.6,23.6,0,0,0,.39,8.9c.44,1.88,3.34,1.09,2.89-.79-1.54-6.5.52-13,3.7-18.61,3.39-6,7.9-11.31,12.26-16.65l29.08-35.62,58.48-71.64c4.64-5.69,9.33-11.35,13.92-17.08a142.64,142.64,0,0,0,11.4-15.91c6.07-10.18,9.8-21.7,7.76-33.59-1.71-10-7.53-19.48-17.18-23.38-12-4.86-25.5.29-35.14,7.85a113,113,0,0,0-14.1,13.83c-4.44,5-8.87,9.91-13.65,14.55a187.4,187.4,0,0,1-31.64,24.68q-4.27,2.66-8.67,5.06c-1.69.93-.18,3.53,1.51,2.59Z" transform="translate(-144.5 -129.16)"/><path class="cls-1" d="M382.74,461.13c9.47-15.78,19.27-31.35,29.2-46.85S432,383.15,442.06,367.6l30.24-46.79,30.39-47,30.39-47,3.78-5.85c1-1.63-1.54-3.13-2.59-1.52l-30.39,47-30.39,47-30.24,46.79Q428.15,383.61,413.06,407c-9.95,15.48-19.82,31-29.36,46.74q-1.79,2.94-3.55,5.88a1.5,1.5,0,0,0,2.59,1.52Z" transform="translate(-144.5 -129.16)"/><path class="cls-1" d="M385.58,463.4c16.61-17.29,41.32-21.58,63.94-25.21,12.17-1.95,24.25-4.15,36.21-7.16a351.25,351.25,0,0,0,35.19-10.83,355,355,0,0,0,37.52-16.27c1.72-.87.2-3.46-1.52-2.59a349.2,349.2,0,0,1-68.87,26c-11.95,3.12-24,5.5-36.23,7.46s-24.76,3.83-36.65,7.73-23.06,9.74-31.71,18.75c-1.34,1.39.78,3.51,2.12,2.12Z" transform="translate(-144.5 -129.16)"/><path class="cls-1" d="M295.54,485.8a28.33,28.33,0,0,1-5.8,5.72c-1.8,1.31-4.51,3.41-6.88,3.15s-2-3.55-1.72-5.24a22.37,22.37,0,0,1,2.45-6.85,23,23,0,0,1,4.63-5.85c1.85-1.68,4.35-3.64,6.95-3.74s4,2.21,3.44,4.67c-.63,2.63-2.72,5-4.54,6.86a30.71,30.71,0,0,1-3.54,3.21c-.24.19-2.78,2-2.74,1.07,0-.41,1.14-.9,1.41-1,.72-.36,1.49-.63,2.24-.94l5.15-2.12a1.54,1.54,0,0,0,1.05-1.84,1.5,1.5,0,0,0-1.84-1.05l-6,2.47c-1.6.65-3.38,1.26-4.41,2.74a3.06,3.06,0,0,0,.49,4.2,4.17,4.17,0,0,0,4.74.09,28.56,28.56,0,0,0,8.11-7.65c2.18-2.86,4-6.51,2.44-10.1s-5.64-4.23-8.93-3a21.56,21.56,0,0,0-8.41,6.39,26.11,26.11,0,0,0-4.86,8.8c-.92,2.88-1.83,6.78-.14,9.55,2.32,3.83,7.08,2.1,10.11.3a32.24,32.24,0,0,0,9.2-8.33c1.16-1.54-1.44-3-2.59-1.51Z" transform="translate(-144.5 -129.16)"/><path class="cls-1" d="M438.73,406A73.76,73.76,0,0,0,490.13,417c1.9-.3,1.1-3.19-.8-2.89a70.64,70.64,0,0,1-49.09-10.64c-1.62-1.06-3.13,1.54-1.51,2.59Z" transform="translate(-144.5 -129.16)"/><path class="cls-1" d="M550.31,186.46a59.57,59.57,0,0,1,28.28-31.41c1.71-.89.2-3.48-1.52-2.59a62.68,62.68,0,0,0-29.65,33.2c-.69,1.81,2.21,2.59,2.89.8Z" transform="translate(-144.5 -129.16)"/></svg>