<?xml version="1.0" encoding="utf-8"?>
<!-- Generator: Adobe Illustrator 26.0.1, SVG Export Plug-In . SVG Version: 6.00 Build 0)  -->
<svg version="1.1" id="Lag_1" xmlns="http://www.w3.org/2000/svg" xmlns:xlink="http://www.w3.org/1999/xlink" x="0px" y="0px"
	 viewBox="0 0 1600 198" style="enable-background:new 0 0 1600 198;" xml:space="preserve">
<style type="text/css">
	.st0{display:none;fill-rule:evenodd;clip-rule:evenodd;fill:#273333;}
	.st1{fill-rule:evenodd;clip-rule:evenodd;fill:url(#SVGID_1_);}
	.st2{display:none;}
	.st3{display:inline;fill:#4CAFB7;}
	.st4{display:inline;fill:#81D3D1;}
	.st5{display:inline;fill:#B4EDEB;}
	.st6{display:inline;fill:#2B8999;}
	.st7{display:inline;fill:#035A73;}
	.st8{display:inline;fill:#002D51;}
	.st9{display:inline;fill:#1D5577;}
	.st10{display:inline;fill:#356C96;}
	.st11{display:inline;fill:#000733;}
	.st12{display:inline;fill:#00000D;}
</style>
<rect x="1110.3" class="st0" width="54.8" height="115.2"/>
<linearGradient id="SVGID_1_" gradientUnits="userSpaceOnUse" x1="576.86" y1="4.052" x2="576.86" y2="5.1616" gradientTransform="matrix(-1600 0 0 198.0004 923776 -824.0006)">
	<stop  offset="0" style="stop-color:#356C96;stop-opacity:0.2"/>
	<stop  offset="8.053146e-02" style="stop-color:#2B638A;stop-opacity:0.378"/>
	<stop  offset="0.2263" style="stop-color:#1D5577;stop-opacity:0.7"/>
	<stop  offset="0.3097" style="stop-color:#0D3F62;stop-opacity:0.767"/>
	<stop  offset="0.3906" style="stop-color:#033255;stop-opacity:0.832"/>
	<stop  offset="0.4627" style="stop-color:#002D51;stop-opacity:0.89"/>
	<stop  offset="0.7613" style="stop-color:#000733"/>
	<stop  offset="0.8122" style="stop-color:#00052A"/>
	<stop  offset="1" style="stop-color:#00000D"/>
</linearGradient>
<path class="st1" d="M1600,121C1289,121,1190.1-0.2,789,0C389,0,289,121,0,121v77h1600C1600,198,1600,150,1600,121z"/>
<g class="st2">
	<rect x="761.2" y="-221.2" class="st3" width="109.6" height="109.6"/>
	<rect x="632.9" y="-221.2" class="st4" width="109.6" height="109.6"/>
	<rect x="504.6" y="-221.2" class="st5" width="109.6" height="109.6"/>
	<rect x="889.5" y="-221.2" class="st6" width="109.6" height="109.6"/>
	<rect x="1017.8" y="-221.2" class="st7" width="109.6" height="109.6"/>
</g>
<g class="st2">
	<rect x="739.2" y="-214.8" class="st8" width="109.6" height="109.6"/>
	<rect x="610.9" y="-214.8" class="st9" width="109.6" height="109.6"/>
	<rect x="482.6" y="-214.8" class="st10" width="109.6" height="109.6"/>
	<rect x="867.5" y="-214.8" class="st11" width="109.6" height="109.6"/>
	<rect x="995.8" y="-214.8" class="st12" width="109.6" height="109.6"/>
</g>
</svg>
